<svg xmlns="http://www.w3.org/2000/svg" width="39" height="20" viewBox="0 0 39 20">
    <g fill="none" fill-rule="evenodd">
        <g fill="#171B1D">
            <g>
                <g>
                    <path d="M38.192 4.462l-.048-.25C37.619 1.604 35.47 0 32.508 0H5.844C2.879 0 .712 1.621.187 4.232l-.048.25C.044 5.05-.002 5.616 0 6.308v7.303c.004.832.079 1.446.09 1.548l.003.015.004.027C.447 18.206 2.595 20 5.844 20h19.275c.17 0 .305-.142.305-.317V7.853c0-.175-.136-.317-.305-.317h-1.112c-.169 0-.305.142-.305.317v10.368H6.274c-2.886 0-4.542-1.828-4.544-4.544l.002-7.385c0-2.74 1.656-4.505 4.542-4.505H32.078c2.886 0 4.523 1.746 4.523 4.486l.002 7.382c-.002 2.716-1.641 4.553-4.528 4.553l-.59.008-.35.002-.352.003h-.33c-.17 0-.306.141-.306.317v1.138c0 .175.136.317.305.317h.222l.553-.003c.104 0 .208-.002.312-.004h.971c3.25 0 5.377-1.804 5.726-4.806l.005-.026.002-.015c.012-.101.088-.716.09-1.549v-7.3c0-.692-.048-1.259-.14-1.828zm-22.24 8.473c0 1.196.722 2.01 1.797 2.01h.481c.169 0 .308-.142.308-.32v-1.001c0-.082-.03-.163-.088-.226-.06-.062-.139-.093-.217-.091h-.556V5.315c0-.176-.136-.317-.305-.317h-1.114c-.17 0-.306.141-.306.317v7.62zM19.828 8.5V8.5c0-.175.137-.317.305-.317H21.246c.169 0 .305.142.305.317v4.81h.541c.079-.002.157.03.218.091.027.03.05.065.064.101.014.041.023.082.023.123v1.004c0 .175-.136.317-.305.317h-.465c-1.075 0-1.799-.805-1.799-2V8.5zM14.632 5.45l.01-.024c0-.005.002-.01.004-.014.007-.022.011-.043.011-.065.002-.012-.004-.087-.007-.103-.009-.039-.025-.07-.044-.104l-.003-.006c-.005-.009-.01-.017-.018-.025l-.02-.02-.021-.02-.02-.015c-.006-.005-.012-.01-.02-.014l-.011-.007c-.01-.006-.02-.012-.032-.015-.028-.012-.104-.022-.104-.022h-1.272c-.012 0-.033 0-.044.003L13.025 5c-.02.005-.036.009-.058.018-.037.017-.072.039-.1.07L8.961 8.576c-.43.447-.47 1.155-.09 1.647l3.96 4.583c.002.004.006.008.01.012l.008.007.014.014c.025.024.053.043.083.058l.005.002.003.002c.003 0 .006.002.008.003.033.012.067.022.104.022h1.304c.003 0 .005-.003.007-.003.033 0 .065-.007.093-.019l.037-.017c.018-.01.037-.024.055-.038.005-.005.01-.01.015-.013l.015-.014c.021-.024.04-.05.054-.079v-.002l.002-.003c.004-.008.006-.017.008-.026l.001-.005c.01-.026.014-.055.016-.082v-.028c-.002-.068-.023-.135-.064-.19L10.399 9.4l4.173-3.86c.025-.026.046-.057.06-.09zm6.61 1.302h-1.11c-.133 0-.242-.09-.288-.207-.011-.033-.02-.07-.02-.108V5.312c0-.173.136-.312.305-.312h1.112c.125 0 .234.08.28.192.016.036.025.08.025.123v1.121c0 .043-.009.084-.025.123-.046.112-.153.192-.28.192zM7.771 5.303c0-.176-.136-.317-.305-.317H6.355c-.037 0-.072.01-.106.021l-.028.015c-.023.012-.044.026-.063.043l-.011.01-.012.011c-.023.024-.041.053-.055.084 0 .003-.003.005-.005.008-.016.038-.025.079-.025.125v9.3c0 .044.009.087.025.126.046.115.155.194.28.194h1.112c.17 0 .306-.142.306-.317V5.303zm24.44 6.412l-.014.058c-.268 1.342-1.334 2.183-2.83 2.185H26.567c-.169 0-.305-.142-.305-.317v-1.136c0-.01.002-.02.005-.03l.004-.02.004-.024c.002-.016.004-.032.01-.048.014-.032.032-.06.055-.087.003-.002.004-.005.006-.008l.006-.009.007-.005.007-.004c.025-.022.053-.044.085-.058.016-.006.033-.009.05-.01l.024-.004.019-.005c.008-.003.016-.005.025-.005h2.576c1.025 0 1.545-.483 1.545-1.434v-.033c0-.93-.52-1.412-1.545-1.412H26.57c-.041 0-.083-.01-.12-.027-.072-.031-.132-.091-.162-.168-.016-.038-.025-.082-.025-.125V7.856c0-.09.034-.168.09-.226.055-.058.132-.094.215-.094H29.331c1.62 0 2.735.946 2.913 2.469.005.026.114.836-.02 1.647l-.012.063z" transform="translate(-83.000000, -426.000000) translate(38.000000, 412.000000) translate(45.000000, 14.000000)"/>
                </g>
            </g>
        </g>
    </g>
</svg>
